<?xml version="1.0" encoding="UTF-8"?><svg id="b" xmlns="http://www.w3.org/2000/svg" viewBox="0 0 450 100"><defs><style>.c{fill:#231f20;}.d{stroke:#231f20;stroke-miterlimit:10;stroke-width:.25px;}</style></defs><path class="c" d="M72.39,72.68h-1.54v-1.83h1.54v1.83ZM28.02,38.33h-5.64s0,1.83,0,1.83h5.64v5.83s31.41,0,31.41,0v-12.72h4.43s0-2.46,0-2.46h-4.43v-13.39h11.42v5.97h-9.54s0,1.64,0,1.64h9.54v25.39h-9.54s0,2.65,0,2.65h9.54v17.78h-11.42v-13.44s-31.41,0-31.41,0v11.76h-4.29s0,2.6,0,2.6h4.29v14.16h-11.42v-4.82h8.29s0-1.83,0-1.83h-8.29V31.39h11.42v6.94ZM59.43,85.93v-13.25h11.42v13.25h-11.42ZM49.46,42.47h4.96v1.16h-4.96v-1.16ZM28.02,17.42v5.11h-3.13s0,1.69,0,1.69h3.13v5.15h-11.42v-11.95h11.42ZM10.19,29.37h6.41v2.02h-6.41v-2.02Z"/><path class="c" d="M144.24,28.84h-39.99v7.18h-5.59v1.73h5.59v8.24h22.88v2.51h-6.26v1.69h6.26v7.23h-3.28v-2.17h-13.59v2.17h-6.02v17.1h39.99v11.42h-4.87v-1.83h-15.51v1.83h-31.03v-6.6h17.44v-1.49h-17.44V25.71h7.66v-1.64h-7.66v-6.65h51.4v11.42ZM110.28,59.05v-1.64h13.59v1.64h-13.59ZM116.25,22.05v1.35h16.57v-1.35h-16.57Z"/><path class="c" d="M206.84,73.67h8.14v11.42h-50.3v-12.62h7.95v-1.64h-7.95v-28.86h4.63v-1.83h-4.63v-23.56h11.47v13.25h-3.52v1.49h3.52v21.73h-5.88v2.99h5.88v17.63h10.26v2.07h20.43v-2.07ZM193.4,82.44v-1.83h-17.83v1.83h17.83ZM206.84,70.98v2.7h-20.43v-2.7h20.43Z"/><path class="c" d="M336.59,23.69h-1.54v-1.35h1.54v1.35ZM293.33,68.93h-7.52s0,1.54,0,1.54h9.01c3.28,3.05,7.16,4.58,11.66,4.58,4.72,0,8.75-1.67,12.09-5.01,3.02-2.99,4.67-6.54,4.96-10.65h6.41s0-1.11,0-1.11h-6.36v-.14c.03-.06.05-.13.05-.19v-9.25h9.64s0-2.17,0-2.17h-9.64v-15.56h6.31s0-1.35,0-1.35h-6.31v-11.66h11.42v4.38h-5.11s0,1.35,0,1.35h5.11v34.25c0,5.33-1.28,10.13-3.85,14.4h-7.42s0,1.73,0,1.73h6.26c-.96,1.38-2.09,2.71-3.37,4-5.56,5.59-12.29,8.38-20.19,8.38-7.74,0-14.39-2.71-19.95-8.14h2.26s0-1.59,0-1.59h-3.76c-4.75-5.3-7.13-11.56-7.13-18.79v-1.2h11.42v1.2c0,4.21,1.33,7.87,4,10.98ZM322.52,46.52h1.11v2.17h-1.11v-2.17ZM315.44,82.17v-1.49s-8.96,0-8.96,0v1.49s8.96,0,8.96,0ZM285.67,43.34h-7.76v-25.39h11.42v11.66h-8.29s0,1.64,0,1.64h8.29v23.03h-11.42v-9.73h7.76s0-1.2,0-1.2ZM283.93,20.89h-4.53s0,1.45,0,1.45h4.53s0-1.45,0-1.45ZM276.42,54.28h1.49v2.46h-1.49v-2.46Z"/><path class="c" d="M439.81,47.1h-3.04v-1.83h3.04v1.83ZM363.83,52.4h-6.99v-26.02h11.61s0-2.02,0-2.02h-11.61v-9.92h10.74s1.59,1.98,1.59,1.98h-5.35s0,1.4,0,1.4h6.5s14.12,17.68,14.12,17.68h-8.19s0,1.69,0,1.69h9.54s11.03,13.78,11.03,13.78l18.02-22.5h10.36s0-1.35,0-1.35h-9.3s10.12-12.67,10.12-12.67h10.74v4.62h-9.73s0,1.49,0,1.49h9.73v24.71h-9.73s0,1.83,0,1.83h9.73v35.84h-11.42v-4.48h2.84s0-1.83,0-1.83h-2.84v-7.95h8.33s0-3.23,0-3.23h-8.33v-31.89s-15.56,19.51-15.56,19.51h-8.96s0,1.93,0,1.93h7.42s-11.42,14.26-11.42,14.26l-4.29-5.4h6.79s0-1.16,0-1.16h-7.76s-11.23-14.02-11.23-14.02h5.01s0-1.59,0-1.59h-6.26s-10.84-13.54-10.84-13.54v6.74h-5.59s0,1.16,0,1.16h5.59v28.04h-5.59s0,2.02,0,2.02h5.59v11.42h-11.42v-22.21h4.38s0-1.2,0-1.2h-4.38v-5.49h6.99s0-1.64,0-1.64ZM371.45,76.15v-1.01h7.66v1.01h-7.66ZM358.49,79.38h4.19s0-1.06,0-1.06h-4.19s0,1.06,0,1.06ZM353.38,52.4h3.47v1.64h-3.47v-1.64Z"/><path class="d" d="M246.09,20.37l2.61.77-.61,2.06-2.61-.77.61-2.06ZM232.21,71.26l1.56.46-.5,1.71-1.56-.46.5-1.71ZM239.58,66.66l7.94,2.35-4.26,14.43-9.1-2.69-.27.9,9.1,2.69-.94,3.17-11.91-3.52,3.12-10.56,7.24,2.14.5-1.71-7.24-2.14,9.62-32.57,9.75,2.88.86-2.92-9.75-2.88,3.84-13.02,7.24,2.14.61-2.06-7.24-2.14,2.55-8.65,3.22.95-.37,1.26,8.7,2.57-4.13,13.97-8.14-2.4-.39,1.31,7.34,2.17-4.87,16.49-7.14-2.11-.42,1.41,7.94,2.35-5.21,17.64-7.94-2.35-.27.9ZM241.41,54.73l-.46,1.56,5.03,1.48.46-1.56-5.03-1.48ZM253.9,50.72l-.9-.27.42-1.41.9.27-.42,1.41Z"/></svg>